<?xml version="1.0" encoding="utf-8"?>
<!-- Generator: Adobe Illustrator 24.0.0, SVG Export Plug-In . SVG Version: 6.00 Build 0)  -->
<svg version="1.1" id="Layer_1" xmlns="http://www.w3.org/2000/svg" xmlns:xlink="http://www.w3.org/1999/xlink" x="0px" y="0px"
	 viewBox="0 0 864 864" enable-background="new 0 0 864 864" xml:space="preserve">
<g id="CN">
	<path d="M550.042,294.994c-48.69-25.64-104.34-34.93-158.72-26.5c-26.83,1.96-53.02,9.11-77.13,21.04
		c-65.91-9.33-106.41,61.34-125.63,111.69c-8.79,20.57-20.85,39.59-35.71,56.32c-16.47,19.81-42.21,33-52.64,57.63
		c-8.81,29.69,8.03,60.92,37.68,69.85c19.44,8.7,40.64,12.75,61.92,11.84c34.92-0.41,66.03-22.16,78.41-54.81
		c5.01-11.07,8.46-22.78,10.27-34.8c51.54,8.33,103.77,11.71,155.96,10.09c31.3-0.63,62.52-3.52,93.4-8.64
		c10.95-1.51,21.81-3.67,32.51-6.46c2.8,9.04,13.97,42.65,15.97,46.66c10.85,24.37,31.78,42.8,57.33,50.48
		c22.36,5.28,45.7,4.7,67.78-1.67c4.79-1.34,9.49-3.01,14.05-5c29.94-10.3,46.5-42.32,37.6-72.71
		c-10.42-24.65-36.16-37.83-52.64-57.63c-18.62-22.54-33.36-48.02-43.61-75.4c-15.45-40.45-45.52-98.92-117.73-92.62"/>
	<path fill="#FFFFFF" d="M563.732,307.144c53.82-1.54,74.12,48.17,93.22,87.7c10.45,27.87,25.73,53.69,45.12,76.28
		c18.07,17.53,43.4,32.51,49.26,59.41c2.31,15.72-4.21,31.44-16.97,40.9c-26.17,17.33-58.55,22.51-88.83,14.22
		c-17.73-6-32.54-18.48-41.45-34.93c-8.74-16.38-15.69-33.65-20.72-51.52c0,0,26.06-15.39,31.19-33.13
		c6.08-20.84,4.46-43.17-4.57-62.92c-2.64-6.63-5.82-13.03-9.52-19.13c-1.42-1.95-3.96-6.23-6.25-5.11
		c-2.85,1.43,3.48,15.5,4.55,18.62c2.8,7.83,5.04,15.86,6.69,24.01c2.46,11.04,2.11,22.52-1.03,33.39l-0.1,0.25
		c-1.52,4.71-3.73,9.15-6.58,13.2c-3.4,4.75-7.49,8.96-12.14,12.49c-22.08,17.12-61.76,17.66-88.62,20.71
		c-34.27,3.96-68.8,5.13-103.26,3.5c-41.02,1.95-82.05-3.8-120.95-16.95c-2.3-1.06-4.59-2.23-6.83-3.46
		c-12.04-5.29-20.88-15.93-23.89-28.73l-0.08-0.37c-0.1-0.56-0.19-1.1-0.25-1.67c-1.15-10.54-0.57-21.19,1.71-31.54
		c0.42-1.92,0.89-3.84,1.46-5.79c3.58-12.32,11.15-23.51,13.83-36.05c-6.61-9.56-23.72,38.21-25.64,46.04
		c-6.48,20.13-2.16,42.17,11.43,58.37c8.58,8.22,18.81,14.51,30.01,18.46l-0.37,6.52c-2.59,31.26-22.45,58.45-51.44,70.42
		c-30.7,8.65-63.62,3.87-90.59-13.15c-12.63-8.39-20.27-22.5-20.4-37.67c2.6-27.41,32.59-42.6,49.51-63.24
		c17.95-22.78,33.06-47.66,45-74.1c7.48-18.42,16.97-35.96,28.29-52.3c13.52-16.58,38.4-41.41,65.05-37.57
		c-2.34,3.29-5,6.33-7.94,9.09c-2.54,2.53-4.14,6.2-2.44,7.31c2.57,1.67,7.63-2.49,8.57-3.31c29.86-23.59,66.77-36.46,104.82-36.55
		c41.76-5.27,84.16,0.49,123,16.71c16.34,6.28,30.82,16.62,42.06,30.03c1.18,1.25,2.43,2.44,3.74,3.55
		c4.55,2.1,3.16-4.86,0.02-10.08c-2.23-3.73-6.24-9.12-8.36-11.91"/>
	<path fill="#F6A7D7" d="M320.182,458.244c-5.57-12.08-27.1-14.71-42.13-12.78c-7.39,0.62-14.51,3.04-20.74,7.05
		c-7.43,4.67-10.04,14.26-5.99,22.05c3.67,7.22,18.97,9.83,29.17,9.78c11.94,1.76,24.14,0.16,35.22-4.62
		C322.442,474.744,324.372,465.494,320.182,458.244z"/>
	<path fill="#F6A7D7" d="M595.972,455.294c-5.62-12.08-27.14-14.7-42.15-12.79c-7.38,0.61-14.5,3.02-20.74,7.02
		c-7.44,4.68-10.05,14.29-5.99,22.09c3.62,7.2,18.97,9.82,29.15,9.78c11.93,1.75,24.12,0.15,35.2-4.64
		C598.202,471.804,600.162,462.554,595.972,455.294z"/>
	<path fill="#6BC4E8" d="M330.322,391.824c5.72,12.49,4.83,27.02-2.38,38.71c-4.53,4.7-11.29,6.51-17.56,4.7
		c-6.04-3.15-9.98-9.23-10.38-16.03c-1.64-10.68,1.75-21.51,9.2-29.34c5.03-5.42,13.49-5.73,18.91-0.71
		C328.962,389.944,329.702,390.844,330.322,391.824z"/>
	<path fill="#6BC4E8" d="M543.622,389.334c5.49,5.96,8.38,13.85,8.04,21.94c-0.61,8.67-3.99,20.76-10.92,21.57
		c-5.36,2.65-11.73,2.16-16.62-1.28c-6.8-8.33-8.85-19.57-5.45-29.77c1.7-6.81,6.44-14.96,14.41-15.46
		C536.842,386.054,540.572,387.114,543.622,389.334z"/>
	<path d="M462.892,441.664c2.67,3.1,3.35,7.46,1.74,11.22c-2.75,5.79-8.56,9.51-14.98,9.57c-13.21,0.66-18.43-9.89-29.59-5.27
		c-7.94,4.15-20.13,9.09-27.56,3.47c-2.99-2.34-4.37-6.19-3.56-9.9c0.8-3.24,2.75-6.07,5.47-8c1.9-0.7,4.02,0.1,4.98,1.89
		c-1.39,3.6-5.66,5.88-2.63,9.65c3.19,3.58,7.34,1.95,12.5-0.1c24.45-13.68,27.92,4.32,42.03,0.6c2.8-0.66,5.16-2.53,6.44-5.11
		c3.11-8.57-9.92-7.29-5.45-12.7C455.682,434.764,461.092,439.324,462.892,441.664z"/>
</g>
</svg>
